<svg xmlns="http://www.w3.org/2000/svg" width="7.64in" height="0.93in" viewBox="0 0 549.85 66.8"><defs><style>.a{fill:#fff;}</style></defs><title>partner</title><path class="a" d="M315.81,51.79c-2.81,0-4.92,3.23-4.92,7.52s2.07,7.49,4.92,7.49,4.91-3.22,4.91-7.49S318.61,51.79,315.81,51.79Zm0,13.95c-1.48,0-1.75-1.77-1.75-6.76,0-4.75.39-6.13,1.75-6.13s1.75,1.9,1.75,6.46S317.31,65.74,315.81,65.74Z"/><path class="a" d="M256.43,52.15h-5.72l-.2,5.19h.87c.26-2.77,1.64-4.22,2.78-4.22.67,0,.83.49.83,1.77v9.28c0,.86-.2,1.11-.88,1.11h-1.27v1H260v-1h-1.27c-.67,0-.87-.25-.87-1.11V54.89c0-1.28.16-1.77.83-1.77,1.14,0,2.52,1.45,2.78,4.22h.87l-.2-5.19Z"/><path class="a" d="M239.45,57.38l-.38-.16c-1.78-.76-2.68-1.14-2.68-2.45a1.79,1.79,0,0,1,2-1.77c1.61,0,3.08,1.56,3.84,4.22h.9V52.08h-.88c-.12.24-.37,1-.57,1a7.48,7.48,0,0,0-3.57-1.24,4.07,4.07,0,0,0-4.1,4.12c0,2.24,1.34,3.23,3.82,4.28,2.31,1,3.62,1.62,3.62,3.22a1.89,1.89,0,0,1-2,2c-2,0-3.76-1.88-4.35-4.85h-1L234,66.33h1c.18-.38.41-1.14.7-1.14s1.55,1.46,3.79,1.46a4.29,4.29,0,0,0,4.36-4.6C243.81,59.38,242.15,58.53,239.45,57.38Z"/><path class="a" d="M221.06,65.23c-1.53,0-1.53-.26-1.53-1.23V59.5h.37c2,0,2.88.65,2.9,2.62H224v-6.4H222.8c0,1.94-.9,2.63-2.9,2.63h-.37v-4.1c0-1,0-1,1.41-1,3,0,4.29.84,4.63,3.43h1.14l-.33-4.52H214.86v1h1c.52,0,.68.12.68.91V64.38c0,.78-.15.9-.68.9h-1v1h11.57l.39-4.81H225.7C225.29,64,223.62,65.23,221.06,65.23Z"/><path class="a" d="M288.64,64v-12h-1a4.34,4.34,0,0,1-4,3v1.1h.66c1.24,0,1.45.23,1.45,1.54V64c0,1.06-.16,1.22-1.27,1.22h-.9v1.07h7.13V65.25h-.79C288.81,65.25,288.64,65.09,288.64,64Z"/><path class="a" d="M296.46,57h1.18c.24-1.59.74-2.1,1.68-2.1h3.76a6.26,6.26,0,0,1-2.24,3.86c-1.92,1.89-2.9,3.74-2.9,5.51,0,1.36.74,2.28,1.85,2.28a1.71,1.71,0,0,0,1.77-1.9c0-.36-.2-1.15-.2-1.63,0-1.48.56-2.46,1.46-4a11.91,11.91,0,0,0,1.81-6.89h-7.77C296.82,53.7,296.46,57,296.46,57Z"/><path class="a" d="M326.82,57H328c.24-1.59.74-2.1,1.68-2.1h3.75a6.2,6.2,0,0,1-2.23,3.86c-1.93,1.89-2.9,3.74-2.9,5.51,0,1.36.74,2.28,1.84,2.28a1.7,1.7,0,0,0,1.77-1.9c0-.36-.19-1.15-.19-1.63,0-1.48.56-2.46,1.46-4A11.91,11.91,0,0,0,335,52.07h-7.77C327.17,53.7,326.82,57,326.82,57Z"/><path class="a" d="M221.09.91V2.6c5.19,0,5.29,2.62,5.29,8.46V24.12c0,7.29-1.09,10.55-7.58,10.55s-7.53-3.26-7.53-10.55V7.29c0-3.63.18-4.68,4.14-4.68h1V.91H199.75v1.7h.72c3.92,0,4.1,1.05,4.1,4.68v18.4c0,9.54,3.38,13.09,12.49,13.09,8.14,0,11.92-3.84,11.92-12.09V11c0-6.26.4-8.36,4.68-8.36V.91H221.09Z"/><path class="a" d="M52.9,0C44.36,0,37.11,7.66,37.11,19.39c0,10.94,6.72,19.39,15.79,19.39s15.85-8.33,15.85-19.39S61.94,0,52.9,0Zm0,36.6c-5.44,0-7.77-5.16-7.77-17.26S47.46,2,52.9,2s7.83,5.18,7.83,17.32S58.39,36.6,52.9,36.6Z"/><path class="a" d="M109.25,30.77c0,2.88-.46,4-1.63,4-1.52,0-1.61-1.45-1.66-4.44,0-1.2,0-2.55-.2-4-.52-5.13-2.74-7.39-8.32-8.25,7.18-.81,10.14-3.38,10.14-8.68,0-5.86-4.22-8.48-13.69-8.48H76.23V2.6h2.39c1.77,0,2.29.65,2.29,2.9V33.18c0,2.25-.52,2.9-2.29,2.9H76.23v1.86H92.55V36.08H90.21c-1.79,0-2.33-.68-2.33-2.9v-14h1.76c6.81,0,8.68,1.46,8.68,7l0,3.46c0,6.13,2.19,9.11,6.68,9.11s6.4-2.29,6.4-7.43V30.21h-2.1ZM92.55,17H87.88V5.6c0-2.26.12-2.69,4.19-2.69,5.71,0,7.54,1.64,7.54,6.73S97.37,17,92.55,17Z"/><path class="a" d="M119.11.89l-.53,13.56h2.08c1.41-7.52,4.9-11.59,7.47-11.59,1.75,0,2.43,1.3,2.43,4.63V33.13c0,2.25-.52,2.9-2.29,2.9h-3.58v1.91h18.75V36h-3.58c-1.77,0-2.28-.65-2.28-2.9V7.49c0-3.33.68-4.63,2.43-4.63,2.56,0,6.13,4.17,7.46,11.59h2.09L149,.89Z"/><path class="a" d="M179.54,2.59c5.26-.09,5.34,3.05,5.34,8.78V27.93L169,.89H157.91V2.6h2.34c1.77,0,2.29.65,2.29,2.9V27.73c0,5.93-.38,8.35-4.15,8.35h-.53v1.86h12.52V36.08c-5,0-5.29-2.28-5.29-8.72V7.86l17.8,30.08h4.5V11c0-5.9.22-8.36,4.67-8.36V.89H179.54Z"/><path class="a" d="M0,.9V2.6H2.39c1.77,0,2.29.65,2.29,2.9V33.19c0,2.25-.52,2.89-2.29,2.89H0v1.86H16.32V36.08H14c-1.77,0-2.29-.64-2.29-2.89V18.49h1c5.66,0,8,2,8.26,7h2.19V9.29H21c-.26,5.17-2.55,7-8.26,7h-1V6.08c0-2.56,0-3.16,4.2-3.16,7.94,0,11.5,2.59,12.47,9.17h2.19L29.72.9Z"/><path class="a" d="M429.59,29.73l-9.67-29H416.5l-9,26.8c-1.88,5.65-3,8.6-6.58,8.6h-.34v1.86h11.47V36.08h-.72c-2.5,0-3-.8-3-2.11a25.43,25.43,0,0,1,1.35-5.2H422c.06.18,1.64,5.11,1.64,5.62,0,1.23-.76,1.69-2.82,1.69h-1.19v1.86h15.85V36.08h-1C431.75,36.08,431,34.25,429.59,29.73Zm-19-3.66c.11-.37,5.21-15.74,5.48-16.55.25.81,5,16.19,5.12,16.55Z"/><path class="a" d="M456.69,14.85l-1-.44c-4.84-2-7.5-3.15-7.5-7,0-3.07,2.37-5.21,5.77-5.21,4.58,0,8.62,4.2,10.72,11.33h1.64V.68h-1.63c-.5,1-1,2.62-1.86,2.62S458.55,0,453.16,0a10.51,10.51,0,0,0-10.65,10.58c0,5.75,3.54,8.31,10.06,11s10.08,4.46,10.08,9a5.52,5.52,0,0,1-5.82,5.73c-5.64,0-10.37-5-12.15-13h-1.83l-.24,14.55h1.82c.55-1.32,1.08-3,2.19-3s4.31,3.88,10.26,3.88c6.68,0,11.36-4.87,11.36-11.84S464.07,18,456.69,14.85Z"/><path class="a" d="M374.79,27.39l-8-26.5H353.65V2.6H356c1.78,0,2.3.65,2.3,2.9V27.73c0,5.93-.38,8.35-4.16,8.35h-.52v1.86h12.52V36.08c-5,0-5.29-2.28-5.29-8.72V4c.53,1.75,10.48,34.25,10.48,34.25h2.93l9.81-33.88V33.18c0,2.25-.51,2.9-2.28,2.9h-2.34v1.86h15.94V36.08H393c-1.78,0-2.29-.65-2.29-2.9V5.5c0-2.25.51-2.9,2.29-2.9h2.34V.89H382.5Z"/><path class="a" d="M262.57,27.39l-8-26.5H241.43V2.6h2.33c1.78,0,2.3.65,2.3,2.9V27.73c0,5.93-.38,8.35-4.15,8.35h-.53v1.86H253.9V36.08c-5,0-5.29-2.28-5.29-8.72V4c.53,1.75,10.48,34.25,10.48,34.25H262s9.28-32,9.82-33.88V33.18c0,2.25-.52,2.9-2.29,2.9h-2.34v1.86h15.94V36.08h-2.34c-1.78,0-2.29-.65-2.29-2.9V5.5c0-2.25.51-2.9,2.29-2.9h2.34V.89H270.28Z"/><path class="a" d="M492.58,0c-8.55,0-15.8,7.66-15.8,19.39,0,10.94,6.72,19.39,15.8,19.39s15.84-8.33,15.84-19.39S501.61,0,492.58,0Zm0,36.6c-5.46,0-7.78-5.16-7.78-17.26S487.12,2,492.58,2s7.82,5.18,7.82,17.32S498.06,36.6,492.58,36.6Z"/><path class="a" d="M537.32.9V2.59c5.26-.09,5.35,3.05,5.35,8.78V27.93c-.53-.89-15.85-27-15.85-27H515.69V2.6H518c1.78,0,2.29.65,2.29,2.9V27.73c0,5.94-.38,8.35-4.15,8.35h-.52v1.86h12.52V36.08c-5,0-5.3-2.28-5.3-8.71V7.86c.52.89,17.81,30.08,17.81,30.08h4.49V11c0-5.9.22-8.36,4.68-8.36V.9Z"/><path class="a" d="M335.72,26.82h-2.13v0c0,3.87-1.55,6.58-3.77,6.58-1.48,0-3.45-1.49-5.52-3.78a48.51,48.51,0,0,0,4.54-8.24c1.61-3.71,2.83-5.36,5.68-5.36V14.45H324v1.61c1.61,0,2.77.86,2.77,2.3,0,2.53-1.89,6.2-4.16,9.29a63.79,63.79,0,0,1-6.76-10.92c4.7-2.73,6.74-5.54,6.74-9.25A6.91,6.91,0,0,0,315.39.23c-4.73,0-8,3.61-8,8.8a29,29,0,0,0,2.07,8.42l0,0c-5.77,2.34-8.7,6.18-8.7,11.42,0,6,3.74,9.85,9.51,9.85a14.56,14.56,0,0,0,9.6-4c2.32,2.23,5,3.88,7.92,3.88a6.79,6.79,0,0,0,5-2.15c2.05-2.14,3.18-5.74,3-9.66Zm-19.79-24c1.89,0,3.11,1.7,3.11,4.33,0,3.33-1.84,5.7-4.19,7.44a21.41,21.41,0,0,1-2.08-7.44C312.77,4.53,314,2.79,315.93,2.79Zm-4.75,31.15a7.52,7.52,0,0,1-4.38-7.08c0-2.83,1-4.85,3.63-6.87a60.56,60.56,0,0,0,3,6.14,43.39,43.39,0,0,0,4.4,6.5C315.49,34.25,313.21,34.71,311.18,33.94Z"/></svg>