<svg xmlns="http://www.w3.org/2000/svg" width="3.88in" height="1.67in" viewBox="0 0 279.52 119.99"><defs><style>.a{fill:#fff;}</style></defs><title>partner</title><path class="a" d="M53.28,40.8C62.78,40.8,70,32,70,20.4S62.78,0,53.28,0c-9,0-16.62,8.06-16.62,20.4C36.66,31.91,43.73,40.8,53.28,40.8Zm0-38.68c5.77,0,8.23,5.46,8.23,18.23s-2.46,18.16-8.23,18.16S45.1,33.08,45.1,20.35,47.54,2.12,53.28,2.12Z"/><path class="a" d="M91.76,38H89.29c-1.88,0-2.45-.71-2.45-3.05V20.22h1.85c7.17,0,9.14,1.54,9.14,7.35l0,3.64c0,6.45,2.3,9.59,7,9.59s6.72-2.41,6.72-7.82v-1.2h-2.21v.59c0,3-.48,4.21-1.7,4.21-1.61,0-1.71-1.52-1.75-4.67,0-1.26-.05-2.68-.21-4.25-.55-5.39-2.88-7.77-8.76-8.67,7.55-.86,10.67-3.55,10.67-9.13,0-6.17-4.45-8.92-14.41-8.92H74.58V2.73H77.1c1.86,0,2.4.69,2.4,3.05V34.91C79.5,37.28,79,38,77.1,38H74.58v2H91.76ZM86.84,5.89c0-2.38.13-2.83,4.41-2.83,6,0,7.93,1.72,7.93,7.08s-2.36,7.74-7.43,7.74H86.84Z"/><path class="a" d="M126,3c1.84,0,2.56,1.36,2.56,4.87v27c0,2.36-.54,3-2.41,3h-3.76v2h19.73v-2h-3.77c-1.87,0-2.41-.69-2.41-3v-27c0-3.51.72-4.87,2.56-4.87,2.7,0,6.45,4.38,7.86,12.19h2.19L148,.94H116.54L116,15.2h2.19C119.65,7.29,123.32,3,126,3Z"/><path class="a" d="M167.48,38c-5.28,0-5.57-2.4-5.57-9.17V8.27l18.74,31.65h4.72V11.52c0-6.21.24-8.8,4.92-8.8V.94H177.12V2.72c5.53-.09,5.62,3.21,5.62,9.24V29.38L166.06.94h-11.7V2.73h2.46c1.87,0,2.41.69,2.41,3.05V29.17c0,6.24-.4,8.79-4.37,8.79h-.55v2h13.17Z"/><path class="a" d="M226.12,11.52c0-6.6.42-8.8,4.92-8.8V.94H217.81V2.72c5.46,0,5.57,2.76,5.57,8.91V25.37c0,7.67-1.15,11.1-8,11.1s-7.93-3.43-7.93-11.1V7.66c0-3.83.19-4.93,4.37-4.93h1V.94H195.35V2.73h.75c4.13,0,4.32,1.1,4.32,4.93V27c0,10.05,3.56,13.78,13.15,13.78,8.56,0,12.55-4,12.55-12.73Z"/><path class="a" d="M277.06,2.73h2.46V.94H266l-8.11,27.88c-.29-.95-8.41-27.88-8.41-27.88H235.63V2.73h2.46c1.86,0,2.41.69,2.41,3.05V29.17c0,6.24-.4,8.79-4.37,8.79h-.55v2h13.17V38c-5.29,0-5.57-2.4-5.57-9.17V4.21c.56,1.84,11,36,11,36h3.09s9.76-33.71,10.32-35.66V34.91c0,2.37-.54,3.05-2.41,3.05h-2.46v2h16.77V38h-2.46c-1.87,0-2.41-.68-2.41-3.05V5.78C274.65,3.42,275.19,2.73,277.06,2.73Z"/><path class="a" d="M12.3,34.91V19.45h1c6,0,8.47,2.11,8.7,7.39h2.3V9.76H22c-.27,5.45-2.68,7.4-8.69,7.4h-1V6.39c0-2.69,0-3.33,4.42-3.33,8.36,0,12.1,2.73,13.12,9.66h2.3L31.27.94H0V2.73H2.51c1.87,0,2.41.69,2.41,3.05V34.91c0,2.37-.54,3.05-2.41,3.05H0v2H17.17V38H14.71C12.84,38,12.3,37.28,12.3,34.91Z"/><path class="a" d="M56.63,77.07H54.39v0c0,4.07-1.63,6.92-4,6.92-1.56,0-3.63-1.56-5.81-4a51.52,51.52,0,0,0,4.78-8.66c1.69-3.9,3-5.64,6-5.64v-1.7H44.31v1.69c1.69,0,2.91.91,2.91,2.43,0,2.66-2,6.53-4.37,9.77a67,67,0,0,1-7.12-11.49c5-2.86,7.1-5.83,7.1-9.73a7.28,7.28,0,0,0-7.59-7.63c-5,0-8.45,3.81-8.45,9.26A30.76,30.76,0,0,0,29,67.22h0c-6.07,2.46-9.15,6.51-9.15,12,0,6.29,3.93,10.36,10,10.36a15.27,15.27,0,0,0,10.1-4.17c2.44,2.35,5.27,4.09,8.33,4.09a7.11,7.11,0,0,0,5.25-2.27c2.15-2.24,3.34-6,3.17-10.16ZM35.81,51.79c2,0,3.27,1.79,3.27,4.55,0,3.51-1.93,6-4.4,7.83a22.36,22.36,0,0,1-2.2-7.83C32.48,53.62,33.82,51.79,35.81,51.79Zm-5,32.77c-2.72-1-4.61-4.11-4.61-7.45,0-3,1-5.1,3.82-7.22a63.71,63.71,0,0,0,3.14,6.46,46,46,0,0,0,4.62,6.83C35.35,84.88,33,85.37,30.81,84.56Z"/><path class="a" d="M132.87,86.91h-1.26v2h16.67v-2h-1c-3,0-3.7-1.93-5.22-6.68L131.88,49.66h-3.6l-9.44,28.19c-2,6-3.19,9.06-6.93,9.06h-.36v2h12.07v-2h-.76c-2.63,0-3.15-.85-3.15-2.22a27.57,27.57,0,0,1,1.41-5.48h13c.06.19,1.72,5.38,1.72,5.92C135.83,86.43,135,86.91,132.87,86.91Zm-10.8-10.54c.13-.38,5.49-16.56,5.77-17.41.27.85,5.27,17,5.39,17.41Z"/><path class="a" d="M180.62,77.29c0-7.25-4.38-9.45-12.14-12.72l-1.1-.46c-5.09-2.14-7.89-3.32-7.89-7.34,0-3.22,2.49-5.48,6.07-5.48,4.82,0,9.06,4.42,11.28,11.92h1.72V49.66h-1.71c-.52,1.08-1,2.76-1.95,2.76S170.43,49,164.76,49a11,11,0,0,0-11.2,11.13c0,6,3.72,8.75,10.58,11.62s10.6,4.69,10.6,9.51a5.81,5.81,0,0,1-6.11,6c-5.94,0-10.92-5.28-12.79-13.69h-1.93l-.25,15.32h1.91c.59-1.39,1.14-3.21,2.31-3.21s4.53,4.09,10.79,4.09C175.71,89.75,180.62,84.63,180.62,77.29Z"/><path class="a" d="M94.65,83.86c0,2.37-.54,3-2.4,3H89.78v2h16.78v-2H104.1c-1.87,0-2.42-.68-2.42-3V54.73c0-2.37.55-3,2.42-3h2.46v-1.8H93S85.18,76.81,84.9,77.76c-.28-.94-8.4-27.88-8.4-27.88H62.66v1.8h2.46c1.86,0,2.41.68,2.41,3V78.12c0,6.24-.4,8.79-4.37,8.79h-.55v2H75.78v-2c-5.29,0-5.57-2.4-5.57-9.17V53.15c.57,1.85,11,36.05,11,36.05h3.09L94.65,53.54Z"/><path class="a" d="M203.37,49c-9,0-16.62,8.06-16.62,20.4,0,11.51,7.07,20.4,16.62,20.4S220,81,220,69.35,212.86,49,203.37,49Zm0,38.51c-5.74,0-8.19-5.44-8.19-18.17s2.45-18.22,8.19-18.22,8.22,5.45,8.22,18.22S209.13,87.46,203.37,87.46Z"/><path class="a" d="M246.56,51.66c5.54-.08,5.63,3.22,5.63,9.25V78.33L235.51,49.88h-11.7v1.8h2.46c1.87,0,2.41.68,2.41,3V78.12c0,6.24-.4,8.79-4.37,8.79h-.55v2h13.17v-2c-5.28,0-5.57-2.4-5.57-9.17V57.21l18.73,31.66h4.73V60.46c0-6.2.23-8.8,4.92-8.8V49.88H246.56Z"/><path class="a" d="M124.1,104.16h-6.18l-.22,5.6h.94c.29-3,1.78-4.55,3-4.55.72,0,.89.53.89,1.91v10c0,.92-.21,1.19-.94,1.19h-1.37v1.13H128v-1.13H126.6c-.73,0-.95-.27-.95-1.19v-10c0-1.38.18-1.91.9-1.91,1.23,0,2.72,1.57,3,4.55h.95l-.23-5.6Z"/><path class="a" d="M109.2,109.81l-.41-.18c-1.92-.81-2.89-1.22-2.89-2.64a1.94,1.94,0,0,1,2.12-1.92c1.74,0,3.32,1.69,4.14,4.57h1v-5.56h-.95c-.13.26-.4,1.06-.62,1.06a8,8,0,0,0-3.85-1.33,4.39,4.39,0,0,0-4.43,4.45c0,2.42,1.45,3.48,4.13,4.62,2.49,1.06,3.91,1.74,3.91,3.48a2,2,0,0,1-2.14,2.12c-2.16,0-4.06-2-4.7-5.24h-1.06l-.1,6.23h1c.19-.4.44-1.22.75-1.22s1.68,1.57,4.1,1.57a4.63,4.63,0,0,0,4.71-5C113.91,112,112.12,111.05,109.2,109.81Z"/><path class="a" d="M92.53,118.29c-1.66,0-1.66-.28-1.66-1.32V112.1h.41c2.17,0,3.11.71,3.14,2.84h1.23V108H94.41c0,2.1-1,2.84-3.13,2.84h-.41v-4.42c0-1,0-1.1,1.53-1.1,3.26,0,4.63.91,5,3.71h1.23l-.36-4.89H85.84v1.06H87c.56,0,.73.14.73,1v11.16c0,.85-.16,1-.73,1H85.84v1.12H98.33l.42-5.2h-1.2C97.1,116.93,95.3,118.29,92.53,118.29Z"/><path class="a" d="M151.43,117V104.08h-1.05a4.69,4.69,0,0,1-4.37,3.29v1.19h.72c1.33,0,1.57.25,1.57,1.66V117c0,1.15-.18,1.32-1.38,1.32h-1v1.16h7.71v-1.16h-.86C151.61,118.31,151.43,118.14,151.43,117Z"/><path class="a" d="M157.77,109.37H159c.26-1.72.8-2.27,1.82-2.27h4a6.79,6.79,0,0,1-2.42,4.18c-2.08,2-3.13,4-3.13,6,0,1.47.8,2.46,2,2.46a1.84,1.84,0,0,0,1.91-2.06c0-.38-.21-1.23-.21-1.76,0-1.6.6-2.65,1.57-4.35a13,13,0,0,0,2-7.44h-8.4C158.15,105.84,157.77,109.37,157.77,109.37Z"/><path class="a" d="M184.86,109.37h1.27c.26-1.72.8-2.27,1.81-2.27H192a6.79,6.79,0,0,1-2.42,4.18c-2.08,2-3.13,4-3.13,6,0,1.47.8,2.46,2,2.46a1.85,1.85,0,0,0,1.91-2.06c0-.38-.21-1.23-.21-1.76,0-1.6.6-2.65,1.57-4.35a12.88,12.88,0,0,0,2-7.44h-8.4C185.24,105.84,184.86,109.37,184.86,109.37Z"/><path class="a" d="M175.53,103.78c-3,0-5.32,3.49-5.32,8.12s2.24,8.09,5.32,8.09,5.3-3.48,5.3-8.09S178.55,103.78,175.53,103.78Zm0,15.06c-1.61,0-1.9-1.91-1.9-7.3,0-5.13.43-6.62,1.9-6.62,1.62,0,1.89,2.06,1.89,7S177.15,118.84,175.53,118.84Z"/></svg>